#N canvas 552 105 558 559 12;
#X obj 118 112 comport 3 115200;
#X obj 118 161 sel 13 10;
#X obj 118 202 cyclone/zl group 100;
#X obj 118 239 list tosymbol;
#X obj 118 275 cyclone/fromsymbol;
#X msg 113 66 open 3;
#X msg 36 26 devices;
#X msg 125 87 close;
#X floatatom 75 318 5 0 0 0 - - - 0;
#X text 268 90 must install comport External!!! go to Help > Find Externals Search for comport > install;
#X text 105 25 <- List Serial ports;
#X text 175 65 <- open port (3) change as needed;
#X text 276 204 Must install cyclone!;
#X obj 121 355 unpack i i;
#X floatatom 121 379 5 0 0 0 - - - 0;
#X floatatom 188 381 5 0 0 0 - - - 0;
#X connect 0 0 1 0;
#X connect 1 0 2 0;
#X connect 1 2 2 0;
#X connect 2 0 3 0;
#X connect 3 0 4 0;
#X connect 4 0 8 0;
#X connect 4 0 13 0;
#X connect 5 0 0 0;
#X connect 6 0 0 0;
#X connect 7 0 0 0;
#X connect 13 0 14 0;
#X connect 13 1 15 0;
