#N canvas 2372 270 450 300 12;
#X msg 106 82 devices;
#X msg 140 139 close;
#X obj 117 204 comport 3 115200;
#X msg 113 106 open 3;
#X floatatom 169 162 5 0 0 0 - - - 0;
#X connect 0 0 2 0;
#X connect 1 0 2 0;
#X connect 3 0 2 0;
#X connect 4 0 2 0;
